<?xml version="1.0" standalone="no"?>
<!DOCTYPE svg PUBLIC "-//W3C//DTD SVG 20010904//EN"
 "http://www.w3.org/TR/2001/REC-SVG-20010904/DTD/svg10.dtd">
<svg version="1.0" xmlns="http://www.w3.org/2000/svg"
 width="750.000000pt" height="750.000000pt" viewBox="0 0 750.000000 750.000000"
 preserveAspectRatio="xMidYMid meet">
<metadata>
Created by potrace 1.11, written by Peter Selinger 2001-2013
</metadata>
<g transform="translate(0.000000,750.000000) scale(0.100000,-0.100000)"
fill="#000000" stroke="none">
<path d="M1602 6833 c-32 -11 -50 -13 -66 -5 -13 6 -29 6 -37 2 -7 -5 -34 -7
-60 -4 -29 3 -50 1 -54 -6 -9 -15 -56 -34 -77 -31 -30 4 -79 -31 -72 -51 4
-13 0 -18 -14 -18 -10 0 -27 -9 -37 -20 -10 -11 -26 -20 -37 -20 -10 0 -18 -7
-18 -15 0 -8 -4 -15 -10 -15 -5 0 -10 5 -10 10 0 6 -4 10 -10 10 -5 0 -10 -7
-10 -15 0 -9 -11 -21 -25 -27 -14 -6 -28 -22 -31 -35 -4 -12 -10 -21 -14 -18
-20 12 -58 -18 -65 -51 -5 -27 -11 -34 -30 -34 -15 0 -34 -13 -54 -37 -23 -28
-37 -36 -61 -36 -30 0 -31 -2 -26 -29 7 -34 -12 -68 -36 -68 -20 0 -24 -15 -8
-25 17 -11 11 -43 -7 -41 -12 1 -17 -5 -15 -16 2 -12 -6 -18 -25 -20 -26 -3
-28 -6 -27 -50 0 -41 -3 -48 -18 -48 -11 0 -16 -4 -13 -10 3 -5 1 -10 -4 -10
-16 0 -13 -21 5 -35 14 -10 14 -14 3 -26 -16 -17 -23 -89 -9 -89 17 0 11 -25
-10 -38 -12 -7 -20 -23 -20 -38 0 -14 -5 -34 -10 -44 -8 -14 -7 -26 2 -41 11
-17 11 -22 0 -26 -26 -10 -42 -36 -42 -71 0 -27 -8 -44 -31 -68 l-30 -31 23
-46 c16 -33 31 -48 50 -52 33 -8 35 -19 8 -42 -24 -21 -26 -43 -5 -43 8 0 15
-7 15 -15 0 -8 -4 -15 -10 -15 -19 0 -10 -28 12 -33 20 -6 20 -7 5 -30 -14
-21 -14 -24 1 -34 16 -10 15 -13 -5 -41 -28 -38 -28 -40 -1 -44 15 -2 21 -9
19 -18 -3 -8 -5 -28 -5 -44 -1 -25 4 -31 32 -38 29 -8 33 -12 28 -32 -4 -16
-1 -26 9 -30 8 -3 15 -12 15 -20 0 -9 11 -23 24 -32 14 -8 26 -25 28 -37 2
-12 13 -26 26 -32 12 -5 22 -17 22 -27 0 -22 19 -33 33 -19 20 20 42 11 87
-34 33 -34 41 -48 32 -54 -20 -12 84 -62 114 -55 27 7 27 30 0 28 -19 -2 -20
5 -1 29 12 17 19 18 69 7 31 -6 58 -16 61 -21 7 -10 58 -12 68 -3 3 4 -5 15
-18 26 -14 11 -25 26 -25 34 0 8 -11 20 -25 26 -24 11 -44 52 -31 65 3 3 12 0
21 -7 12 -10 15 -10 15 4 0 10 -7 24 -15 32 -8 9 -15 21 -14 27 0 9 2 8 6 0 2
-7 11 -13 18 -13 7 0 30 -8 52 -19 44 -21 93 -37 145 -46 21 -4 42 -13 49 -21
6 -8 15 -11 21 -8 5 3 15 1 23 -6 10 -8 15 -8 21 1 9 15 -43 59 -69 59 -10 0
-41 13 -69 29 -50 29 -50 29 -22 33 25 3 29 7 31 36 2 41 30 77 49 61 8 -7 14
-7 19 0 4 7 18 6 43 -4 20 -9 41 -14 48 -11 7 3 18 -2 24 -10 18 -21 27 -17
39 17 10 28 14 31 40 26 24 -5 29 -3 24 8 -5 16 13 45 28 45 5 0 9 -7 9 -15 0
-8 5 -15 10 -15 6 0 10 7 10 15 0 8 -4 15 -10 15 -5 0 -10 7 -10 16 0 11 5 14
18 9 34 -13 72 -17 72 -8 0 5 -11 20 -25 33 -19 18 -22 27 -15 41 7 13 6 20
-4 26 -17 10 -31 53 -17 53 5 0 13 -4 16 -10 3 -5 13 -10 21 -10 19 0 18 44
-1 60 -22 18 -19 29 11 40 20 8 31 6 57 -13 18 -13 40 -22 50 -20 9 3 17 1 17
-4 0 -4 9 -19 20 -33 l20 -25 0 25 c0 14 -14 40 -30 59 -34 39 -36 46 -14 89
17 35 24 38 41 21 8 -8 16 -6 29 10 l18 20 34 -25 c25 -19 37 -23 45 -15 17
17 45 13 52 -8 9 -29 34 -46 47 -33 6 6 16 8 22 6 7 -3 24 1 38 8 l25 14 -23
49 c-13 27 -30 53 -37 58 -7 5 -3 6 12 1 46 -12 88 -33 101 -48 14 -18 40 -22
40 -7 0 6 -4 12 -9 16 -6 3 -10 13 -10 23 1 9 -2 27 -6 40 -11 35 11 27 55
-20 36 -40 41 -42 56 -27 12 13 13 21 5 38 -6 11 -16 30 -21 41 -17 34 6 23
43 -20 38 -45 73 -55 61 -17 -3 12 -13 29 -20 38 -8 8 -14 20 -14 26 0 5 -9
18 -20 28 -24 22 -26 41 -4 49 23 9 31 7 14 -4 -19 -12 -12 -18 25 -22 29 -3
30 -2 27 35 -3 37 11 51 22 21 4 -9 13 -14 21 -10 10 3 15 -1 15 -11 0 -13 3
-14 12 -5 7 7 20 12 30 12 27 0 22 18 -17 61 -33 37 -47 79 -25 79 6 0 10 -7
10 -15 0 -23 20 -18 29 7 5 14 10 17 15 10 15 -25 27 -11 20 23 -5 28 -3 35
10 35 9 0 16 -8 16 -20 0 -14 7 -20 21 -20 15 0 19 4 15 16 -7 19 10 44 29 44
8 0 11 -8 8 -20 -4 -13 7 -32 36 -61 58 -60 67 -47 63 87 -4 111 5 140 50 172
10 7 18 19 18 25 0 7 9 23 20 37 19 25 20 25 20 3 0 -12 5 -25 11 -29 8 -4 9
-28 5 -70 -6 -60 -5 -64 14 -64 13 0 22 -9 26 -27 13 -62 26 -93 37 -92 20 4
66 -12 78 -27 15 -19 25 -18 33 3 5 11 0 23 -11 31 -13 10 -14 16 -5 19 6 3 9
9 6 14 -10 17 5 59 21 59 21 0 55 31 55 51 0 29 13 29 31 -1 18 -29 39 -40 39
-20 0 6 6 10 13 10 8 0 22 9 32 20 12 13 25 18 37 14 14 -4 21 2 29 25 6 17
14 29 19 26 4 -3 13 2 20 10 31 37 35 -3 13 -120 -5 -30 -5 -30 15 -11 12 10
24 31 27 46 6 28 36 70 49 70 3 0 4 -10 1 -22 -12 -57 -12 -128 1 -145 12 -17
13 -16 14 5 0 15 7 26 20 29 14 4 20 14 20 32 0 20 2 23 10 11 5 -8 11 -12 13
-10 24 32 67 111 67 124 0 9 5 14 10 11 7 -4 8 -28 4 -66 -5 -41 -3 -59 5 -59
6 0 11 4 11 9 0 16 58 74 68 68 5 -4 15 5 22 19 16 29 36 26 32 -4 -3 -19 0
-21 20 -13 13 4 29 21 37 37 18 38 51 74 68 74 14 0 17 -21 14 -82 -3 -46 8
-48 48 -7 38 38 65 34 55 -8 -7 -26 -7 -27 10 -10 10 9 22 17 27 17 5 0 9 9 9
21 0 11 11 37 25 57 l25 36 6 -33 7 -33 13 32 c12 27 16 30 29 20 13 -10 15
-9 15 9 0 11 4 21 10 21 5 0 7 -7 4 -15 -9 -22 20 -19 41 5 10 11 21 17 25 15
5 -3 11 1 13 7 3 7 6 4 6 -8 1 -11 -8 -30 -19 -42 -11 -12 -20 -24 -20 -28 0
-4 -10 -18 -22 -31 -16 -17 -19 -26 -11 -34 8 -8 21 -2 47 25 20 20 41 36 46
36 13 0 13 -37 0 -45 -12 -7 -40 -71 -40 -91 0 -21 28 -17 40 6 12 22 40 27
40 7 0 -7 -5 -18 -12 -25 -15 -15 -3 -28 14 -14 7 5 30 17 52 26 l38 16 -6
-25 c-5 -18 -2 -25 8 -25 8 0 18 5 21 10 10 16 65 12 72 -6 4 -11 13 -14 29
-10 13 4 24 3 24 -2 0 -12 65 -7 132 11 45 12 68 26 115 71 32 31 61 56 66 56
4 0 7 4 7 9 0 6 -15 11 -32 13 -24 2 -34 9 -36 23 -7 42 -11 46 -31 35 -28
-14 -49 -3 -56 31 -5 22 -12 29 -30 29 -18 0 -25 -7 -30 -30 -4 -16 -10 -30
-14 -30 -8 0 -34 30 -49 56 -10 17 -12 16 -23 -14 l-11 -32 -29 40 c-32 44
-49 51 -49 20 0 -11 -4 -20 -10 -20 -5 0 -10 -10 -10 -21 0 -18 -3 -19 -15 -9
-8 6 -18 9 -23 6 -11 -7 -32 37 -32 68 0 32 -25 53 -45 36 -8 -6 -17 -20 -20
-31 -8 -24 -35 -25 -35 0 0 15 -6 18 -40 15 -36 -3 -40 -1 -40 19 0 15 -3 18
-9 9 -4 -7 -12 -12 -17 -11 -21 4 -34 -2 -34 -16 0 -23 -26 -18 -43 8 l-15 22
-12 -26 c-9 -19 -19 -25 -46 -26 -22 -1 -34 4 -34 12 0 8 -8 21 -17 30 -13 14
-14 21 -5 36 10 16 9 19 -7 19 -10 0 -24 -7 -31 -15 -16 -19 -36 -19 -43 -1
-8 19 -44 14 -60 -8 -15 -20 -37 -14 -37 10 0 26 -19 14 -42 -26 -26 -45 -38
-50 -38 -17 0 12 -7 31 -15 41 -14 18 -15 17 -32 -13 -20 -35 -52 -41 -60 -11
-4 15 -11 18 -37 13 -17 -3 -40 -14 -52 -24 -25 -23 -48 -25 -40 -4 10 27 -19
16 -42 -15 -28 -38 -42 -38 -42 -1 0 16 -7 34 -15 41 -13 11 -20 9 -39 -9 -17
-16 -30 -20 -49 -16 -18 5 -28 2 -35 -12 -9 -14 -13 -16 -23 -5 -20 19 -49 15
-49 -8 0 -24 -13 -26 -30 -5 -14 17 -35 21 -25 5 10 -17 -11 -11 -38 10 -28
22 -60 29 -39 8 7 -7 12 -22 12 -34 0 -28 -37 -36 -80 -17 -29 12 -34 11 -45
-3 -11 -16 -14 -15 -33 4 -27 27 -33 27 -65 2 -14 -11 -37 -20 -51 -20 -21 0
-26 -5 -26 -25 0 -14 -7 -28 -15 -31 -8 -4 -15 -15 -15 -25 0 -25 -18 -24 -39
2 -15 18 -21 20 -39 10 -14 -8 -22 -8 -22 -1 0 5 -10 10 -23 10 -27 0 -56 30
-54 57 2 13 -6 19 -26 21 -23 3 -28 8 -24 23 6 22 -18 39 -57 39 -16 0 -32 10
-46 30 -12 17 -28 30 -37 30 -10 0 -13 5 -8 18 17 41 12 47 -47 50 -32 2 -58
7 -58 11 0 5 12 20 27 35 14 14 23 29 19 33 -3 3 -34 12 -69 18 -56 10 -62 13
-62 36 0 17 -6 25 -22 27 -12 2 -27 10 -33 18 -7 8 -24 14 -37 14 -16 0 -27 7
-30 20 -5 17 -14 20 -71 20 -57 0 -69 3 -93 26 -34 33 -169 62 -206 45 -29
-13 -105 -14 -118 -2 -6 5 -28 2 -53 -6z m1518 -829 c0 -8 -5 -12 -10 -9 -6 4
-8 11 -5 16 9 14 15 11 15 -7z m-540 -75 c0 -5 -4 -9 -10 -9 -5 0 -10 7 -10
16 0 8 5 12 10 9 6 -3 10 -10 10 -16z m-992 -816 c6 -19 -25 -16 -32 3 -4 11
-1 14 11 12 9 -2 18 -9 21 -15z"/>
<path d="M6299 6573 c-20 -29 -77 -35 -101 -11 -19 19 -21 19 -39 3 -18 -17
-33 -17 -97 1 -22 6 -23 5 -17 -28 6 -32 4 -36 -18 -42 -14 -3 -37 0 -53 9
-32 16 -55 5 -36 -18 14 -17 6 -27 -22 -27 -12 0 -27 -4 -35 -9 -12 -8 -12
-12 -2 -25 11 -13 10 -17 -4 -22 -9 -4 -21 -18 -26 -31 -7 -20 -14 -24 -32
-19 -23 5 -49 -5 -48 -20 1 -5 -9 -10 -22 -12 -20 -3 -23 -7 -19 -29 4 -22 2
-25 -12 -20 -10 4 -30 10 -44 14 -26 6 -27 5 -9 -14 17 -19 24 -53 10 -53 -3
0 -15 7 -25 17 -11 9 -18 11 -18 5 0 -7 -9 -12 -19 -12 -11 0 -23 -9 -26 -20
-3 -11 -13 -20 -21 -20 -8 0 -26 -11 -39 -24 -14 -14 -34 -26 -47 -28 -16 -2
-28 -17 -43 -55 -29 -72 -42 -84 -64 -57 -9 12 -27 26 -39 33 -11 6 -30 31
-41 56 -12 26 -27 45 -36 45 -8 0 -18 7 -21 15 -8 19 -24 19 -24 0 0 -8 -4
-23 -9 -33 -5 -9 -13 -26 -17 -37 -7 -16 -9 -12 -12 20 -4 47 -9 54 -47 61
-41 7 -46 12 -39 40 3 13 2 24 -3 24 -11 0 -43 -37 -43 -50 0 -6 -7 -10 -15
-10 -8 0 -15 7 -15 15 0 8 -5 15 -11 15 -8 0 -8 4 0 14 8 10 8 16 -3 25 -17
14 -26 3 -26 -30 -2 -88 -14 -128 -49 -168 -25 -29 -28 -61 -5 -61 13 0 15 -7
11 -35 -3 -19 -2 -35 2 -35 15 0 64 28 72 42 4 7 10 10 13 7 3 -2 -8 -32 -23
-64 -33 -68 -23 -85 21 -36 21 23 36 31 60 30 27 0 29 -2 13 -9 -17 -7 -18 -9
-4 -14 9 -4 43 2 75 13 32 12 60 21 61 21 10 0 0 -36 -15 -58 -36 -52 -51 -90
-37 -96 7 -2 18 1 24 7 6 6 11 7 11 1 0 -5 -5 -15 -12 -22 -9 -9 -9 -12 0 -12
7 0 12 5 12 10 0 6 14 10 30 10 17 0 30 -4 30 -10 0 -5 -5 -10 -11 -10 -5 0
-7 -4 -4 -10 3 -5 1 -18 -5 -29 -6 -12 -6 -22 -1 -25 16 -11 135 47 167 80 36
37 46 35 37 -8 -4 -19 -1 -33 6 -38 10 -5 10 -13 2 -29 -6 -11 -16 -30 -21
-41 -17 -33 -2 -41 38 -20 44 24 61 25 68 5 4 -8 10 -15 15 -15 5 0 9 7 9 15
0 8 4 15 9 15 16 0 24 -21 12 -33 -17 -17 -13 -24 14 -24 14 0 25 3 25 8 0 5
14 9 30 9 17 0 30 5 30 10 0 6 7 10 15 10 24 0 18 -12 -27 -53 -37 -33 -39
-37 -18 -32 67 18 78 17 85 -4 5 -16 12 -19 34 -15 42 9 50 -14 17 -43 -25
-21 -26 -23 -6 -23 11 0 37 11 58 24 20 13 52 26 70 30 l33 6 -7 -36 -6 -35
59 7 c33 3 63 2 66 -2 12 -20 -5 -63 -27 -66 -37 -5 -25 -33 17 -36 48 -4 47
-15 -2 -32 -42 -14 -60 -38 -39 -52 10 -6 10 -8 -1 -8 -11 0 -12 -3 -4 -11 7
-7 24 -4 56 11 59 28 75 23 46 -14 l-23 -29 42 5 c27 4 47 1 59 -8 10 -7 38
-14 63 -14 43 0 44 0 22 -16 -44 -30 -18 -60 43 -48 27 5 33 2 38 -16 5 -19
11 -21 34 -17 15 4 22 4 16 1 -7 -3 -13 -11 -13 -17 0 -7 -10 -32 -22 -57 -59
-122 -57 -135 20 -111 18 5 32 6 32 1 0 -11 -41 -50 -52 -50 -5 0 -7 -4 -4 -9
10 -16 133 -5 168 16 19 11 45 22 58 25 14 3 34 9 45 12 18 7 18 6 3 -4 -10
-6 -18 -23 -18 -37 0 -24 2 -25 45 -19 25 4 45 5 45 1 0 -12 -27 -52 -60 -87
-32 -36 -33 -38 -11 -38 12 0 43 11 68 25 34 20 48 23 58 15 10 -8 19 -8 34 0
18 9 23 7 31 -15 14 -36 13 -50 -5 -65 -31 -26 -17 -39 37 -37 45 2 53 -1 56
-18 8 -42 21 -47 101 -39 l76 7 -20 -22 c-25 -28 -11 -53 34 -62 51 -11 51
-16 -5 -72 -12 -12 -23 -31 -25 -42 -3 -11 -17 -26 -33 -33 -36 -18 -21 -37
19 -22 15 6 43 8 62 4 32 -6 33 -7 17 -25 -17 -18 -15 -19 41 -19 52 0 56 -1
44 -17 -8 -9 -29 -22 -46 -30 -18 -7 -33 -18 -33 -23 0 -10 38 -23 56 -19 5 1
39 1 77 0 83 -1 88 -17 15 -49 -63 -28 -55 -40 31 -45 66 -3 83 -15 61 -42
-10 -12 -6 -17 22 -28 30 -12 76 -12 64 0 -3 3 2 12 11 21 14 14 14 17 -4 32
-29 23 -39 59 -19 66 9 3 16 12 16 20 0 8 7 14 15 14 32 0 14 30 -25 40 -22 6
-38 15 -35 20 3 4 14 6 24 3 16 -4 19 -1 15 15 -4 14 0 21 15 25 30 8 29 54
-1 60 l-23 4 23 2 c19 1 22 5 16 24 -3 12 -13 29 -20 38 -17 19 -18 65 -3 75
6 3 8 16 5 29 -4 14 0 28 9 35 13 11 15 101 15 680 l0 668 -30 7 c-28 6 -43
25 -20 25 22 0 8 41 -24 74 -19 19 -32 36 -30 39 3 3 -13 8 -35 12 -31 5 -45
14 -61 40 -11 18 -27 36 -36 39 -11 4 -14 14 -9 35 7 34 -15 61 -50 61 -20 0
-24 6 -27 37 -3 33 -7 39 -37 47 -40 11 -75 42 -85 74 -7 20 -12 21 -49 16
-23 -4 -44 -8 -46 -10 -2 -2 -17 4 -33 14 -19 11 -28 23 -26 37 2 16 -3 20
-26 20 -16 1 -31 6 -33 11 -2 6 -14 9 -27 7 -17 -4 -27 1 -35 16 -14 26 -38
26 -71 1 -33 -26 -36 -25 -48 9 -10 28 -13 29 -73 29 -34 0 -71 -5 -81 -11
-13 -9 -23 -9 -36 0 -19 11 -71 11 -90 -1 -14 -9 -48 8 -60 30 -8 15 -11 14
-23 -3z"/>
<path d="M5906 5451 c-4 -7 -5 -15 -2 -18 9 -9 19 4 14 18 -4 11 -6 11 -12 0z"/>
<path d="M816 4772 c-4 -6 0 -25 9 -42 15 -29 15 -30 -6 -30 -11 0 -34 10 -51
21 -22 16 -32 19 -37 10 -4 -6 -15 -9 -24 -5 -12 4 -17 1 -17 -11 0 -14 -3
-15 -15 -5 -8 6 -19 9 -24 6 -12 -8 -12 -94 0 -102 5 -3 9 -15 9 -27 0 -35 14
-47 56 -54 32 -5 37 -3 27 8 -18 18 -16 49 1 49 8 0 18 -4 21 -10 3 -5 17 -10
31 -10 15 0 23 4 19 10 -4 6 -10 8 -14 5 -5 -2 -19 7 -32 22 l-24 26 34 -7
c18 -3 43 -6 54 -6 11 0 17 -3 13 -7 -7 -7 88 -31 127 -32 30 -1 5 35 -61 91
-16 13 -33 35 -37 47 -7 22 -7 22 27 6 18 -10 41 -24 50 -32 9 -8 22 -12 28
-8 8 5 0 17 -22 36 -37 32 -101 55 -107 38 -1 -5 -9 -2 -15 7 -9 12 -15 13
-20 6z"/>
<path d="M593 4553 c-4 -9 -2 -18 5 -21 6 -2 8 -10 5 -18 -3 -8 -2 -21 1 -30
5 -13 9 -14 21 -4 13 11 14 10 9 -6 -5 -14 -4 -16 5 -8 15 14 4 63 -16 71 -10
4 -11 9 -2 19 9 11 8 14 -5 14 -9 0 -20 -8 -23 -17z"/>
<path d="M637 4406 c-3 -8 -26 -18 -51 -21 -56 -9 -105 -25 -136 -46 l-24 -16
24 -13 c36 -19 90 -67 83 -74 -4 -3 -21 -6 -39 -6 -51 0 -47 -14 10 -40 38
-18 57 -33 64 -53 12 -31 37 -32 37 -3 0 10 8 23 18 30 9 7 17 17 17 22 0 5
14 15 32 22 l31 12 -29 22 c-16 12 -31 25 -34 28 -3 3 -18 10 -34 15 -39 13
-46 35 -12 35 16 0 26 6 26 15 0 8 5 15 10 15 6 0 10 -5 10 -11 0 -8 4 -8 14
0 7 6 21 9 30 5 18 -7 22 11 5 21 -5 4 -14 18 -19 31 -11 27 -25 31 -33 10z
m-77 -86 c0 -11 -5 -20 -12 -20 -6 0 -8 3 -5 7 4 3 2 12 -4 20 -9 10 -8 13 5
13 9 0 16 -8 16 -20z"/>
<path d="M462 4122 c-22 -14 -22 -15 24 -55 56 -49 48 -61 -40 -58 -55 1 -66
-1 -66 -15 0 -8 -13 -21 -30 -27 -16 -6 -30 -15 -30 -19 0 -19 175 -6 196 15
4 4 20 7 35 7 35 0 46 16 25 39 -9 10 -16 23 -16 29 0 7 -5 12 -11 12 -5 0 -7
5 -4 10 3 6 15 10 26 10 25 0 25 17 -1 25 -11 3 -20 14 -20 23 0 22 -58 24
-88 4z"/>
<path d="M2639 4096 c-2 -2 -44 -7 -94 -10 -100 -7 -131 -13 -160 -32 -11 -6
-48 -22 -83 -34 -48 -18 -70 -33 -95 -64 -17 -23 -41 -49 -53 -58 -11 -9 -29
-35 -39 -57 -10 -23 -21 -41 -25 -41 -3 0 -17 -21 -29 -47 -12 -27 -27 -56
-33 -67 -7 -13 -6 -21 2 -26 9 -6 9 -13 1 -29 -7 -12 -9 -36 -6 -55 4 -18 1
-100 -6 -182 -6 -82 -13 -168 -15 -191 -4 -53 -23 -92 -91 -176 -30 -38 -59
-84 -64 -102 -6 -19 -21 -48 -34 -64 -14 -16 -25 -40 -25 -55 0 -16 -14 -39
-40 -65 -44 -43 -51 -57 -21 -41 26 13 31 13 31 -4 0 -8 -9 -18 -20 -21 -11
-3 -20 -13 -20 -20 0 -8 -13 -29 -29 -47 -54 -63 -66 -103 -26 -88 29 11 34
-4 10 -36 -8 -10 -15 -30 -15 -45 0 -14 -4 -29 -9 -35 -14 -15 -22 -74 -10
-74 7 0 9 -10 5 -25 -8 -32 14 -115 31 -115 7 0 13 -10 13 -22 1 -38 27 -99
49 -115 12 -8 21 -21 21 -30 0 -48 194 -234 268 -257 12 -4 22 -11 22 -15 0
-11 38 -26 129 -50 84 -23 265 -29 346 -12 28 6 74 16 102 21 29 6 65 17 80
25 16 8 37 15 49 15 34 0 126 35 168 64 21 14 44 26 51 26 7 0 33 18 58 40 25
22 51 40 59 40 18 0 87 75 113 125 33 60 40 73 89 157 54 92 65 134 66 248 0
48 4 90 9 95 16 19 33 111 38 215 5 90 8 107 26 121 19 16 20 20 7 75 -25 116
-28 155 -12 170 28 28 -10 302 -58 419 -4 11 -20 48 -34 83 -14 35 -26 68 -26
74 0 15 -64 117 -74 118 -16 0 -86 61 -159 138 -17 17 -36 32 -41 32 -6 0 -48
19 -94 42 -58 28 -109 45 -165 54 -84 14 -130 17 -138 10z m301 -1403 c0 -7
-27 -23 -67 -40 -8 -3 -13 3 -13 17 0 18 4 21 25 18 14 -3 28 -1 31 3 6 11 24
12 24 2z m-119 -46 c-13 -13 -26 -3 -16 12 3 6 11 8 17 5 6 -4 6 -10 -1 -17z"/>
<path d="M4857 4072 c-38 -11 -167 -69 -194 -89 -17 -13 -41 -23 -52 -23 -12
0 -29 -8 -39 -18 -10 -10 -34 -26 -55 -35 -36 -17 -70 -55 -114 -126 -34 -55
-103 -193 -103 -207 0 -7 -16 -36 -36 -65 -44 -65 -52 -115 -69 -429 -7 -123
-6 -139 12 -180 14 -30 23 -80 28 -150 4 -58 8 -123 10 -145 5 -61 43 -204 69
-260 30 -66 75 -156 85 -175 5 -8 16 -31 24 -50 42 -99 63 -140 72 -140 6 0
38 -27 73 -60 71 -68 115 -90 181 -92 25 -1 67 -11 93 -24 64 -31 192 -65 258
-69 30 -2 100 -8 155 -14 55 -6 160 -11 233 -11 129 0 135 1 198 31 35 17 74
44 87 61 12 16 37 45 55 66 17 20 32 41 32 48 0 7 7 15 16 18 8 3 12 10 9 16
-3 5 -2 10 4 10 14 0 24 -39 13 -53 -5 -7 -15 -28 -21 -48 -10 -31 -9 -43 6
-73 16 -35 16 -38 -1 -67 -10 -16 -15 -37 -12 -45 3 -8 -5 -32 -19 -52 -25
-36 -25 -37 -5 -40 12 -2 28 2 36 8 12 11 14 2 14 -64 0 -47 4 -76 11 -76 6 0
9 -16 7 -37 -2 -30 -9 -41 -30 -51 -32 -15 -36 -41 -12 -78 12 -17 15 -38 12
-69 -5 -37 -2 -49 18 -70 20 -21 24 -37 24 -85 0 -49 3 -60 19 -65 18 -6 43
-60 56 -123 4 -18 15 -37 25 -42 10 -5 23 -25 30 -44 6 -18 24 -45 39 -59 31
-27 52 -88 32 -95 -6 -2 -11 -10 -11 -18 0 -19 -25 -18 -56 3 -22 14 -27 14
-35 2 -5 -8 -9 -24 -9 -36 0 -12 -4 -24 -8 -27 -13 -8 -52 23 -62 50 -14 35
-30 29 -30 -10 0 -45 -34 -60 -61 -27 -9 11 -29 25 -43 31 -14 5 -26 16 -26
25 0 8 -9 29 -19 46 -20 32 -20 32 -25 8 -3 -13 -7 -37 -8 -54 -2 -18 -8 -29
-15 -28 -8 2 -13 -8 -13 -27 0 -25 -4 -30 -24 -30 -16 0 -26 -7 -31 -22 -6
-20 -8 -20 -12 -5 -2 9 -12 17 -21 17 -9 1 -33 23 -52 50 -19 28 -38 50 -41
50 -3 0 -23 -11 -44 -25 -35 -24 -39 -25 -55 -10 -12 11 -20 13 -25 6 -10 -17
-17 -14 -58 25 -46 44 -59 39 -17 -6 l30 -32 -23 -22 c-19 -18 -27 -20 -56
-10 -18 6 -36 15 -39 21 -14 21 -50 25 -60 6 -10 -17 -11 -17 -29 0 -27 23
-46 22 -38 -3 5 -14 2 -20 -9 -20 -9 0 -16 -4 -16 -10 0 -5 -21 6 -46 26 -39
29 -52 34 -78 28 -17 -3 -34 -11 -37 -17 -4 -5 -13 -6 -20 -1 -7 4 -26 9 -42
11 -15 2 -36 7 -47 13 -14 8 -19 5 -23 -12 -5 -16 -11 -19 -29 -14 -13 4 -52
11 -88 14 -36 4 -71 11 -78 15 -7 5 -14 2 -18 -8 -7 -18 -21 -15 -101 21 -66
31 -87 31 -78 3 7 -21 5 -21 -46 -15 -30 4 -81 9 -114 11 -237 18 -244 20
-287 68 -45 49 -48 76 -15 160 41 108 222 266 357 311 82 27 128 62 136 103
11 56 -3 102 -46 158 -54 69 -84 80 -220 76 -144 -5 -577 -6 -677 -2 -66 3
-95 -1 -147 -19 -37 -13 -67 -30 -69 -39 -3 -10 -5 -8 -6 7 -1 28 -21 29 -29
0 -4 -19 -6 -19 -11 -5 -6 15 -11 13 -44 -14 -35 -28 -37 -34 -37 -85 0 -41 7
-67 26 -102 36 -66 40 -69 82 -77 63 -11 155 -46 199 -76 23 -16 46 -29 50
-29 5 0 22 -14 38 -30 16 -17 34 -30 39 -31 16 0 93 -112 123 -177 34 -74 29
-140 -13 -181 -52 -50 -159 -97 -198 -87 -13 3 -39 0 -57 -7 -37 -15 -139 -11
-139 5 0 5 -8 7 -17 4 -10 -3 -57 -8 -105 -11 -48 -3 -118 -11 -155 -19 -37
-8 -106 -14 -153 -14 -47 1 -100 -2 -118 -6 -33 -8 -33 -8 -13 -23 19 -13 20
-16 7 -41 -8 -15 -25 -35 -37 -46 -20 -17 -23 -17 -34 -3 -11 16 -22 16 -71 2
-12 -4 -25 -2 -28 4 -5 7 -13 7 -26 -1 -24 -15 -41 -1 -19 15 16 12 44 57 35
57 -3 0 -34 -20 -70 -44 -87 -60 -102 -62 -99 -13 2 24 -1 36 -8 32 -5 -4 -16
-2 -24 5 -10 9 -21 8 -44 -4 -16 -9 -33 -20 -36 -26 -3 -5 -11 -10 -17 -10 -7
0 -6 6 2 15 17 20 7 19 -41 -6 -45 -23 -61 -19 -36 9 24 26 10 34 -25 16 -57
-29 -60 -11 -7 45 27 29 48 55 46 58 -3 2 -23 0 -46 -6 -45 -10 -51 -3 -21 24
29 26 18 29 -23 6 -25 -14 -38 -16 -45 -9 -8 8 -16 7 -27 -2 -18 -15 -31 -6
-37 25 -2 11 -8 20 -13 20 -6 0 -16 4 -22 8 -7 5 -17 6 -21 3 -12 -7 -36 39
-28 53 17 27 -8 27 -59 -1 -57 -31 -75 -30 -75 2 0 19 -1 19 -32 0 -61 -37
-66 -18 -9 37 40 40 79 103 62 103 -5 0 -13 -5 -16 -10 -6 -10 -78 -50 -90
-50 -11 0 -4 24 12 42 26 29 -5 23 -60 -12 -26 -17 -52 -30 -56 -30 -5 0 1 20
13 44 15 30 22 59 20 96 -1 36 3 53 12 57 9 3 14 22 14 54 0 27 4 49 9 49 14
0 29 53 20 75 -12 32 -10 55 6 55 20 0 19 31 -5 125 -15 58 -17 81 -9 86 8 4
10 21 6 43 -3 22 -2 34 4 31 5 -4 12 0 14 7 6 16 -19 83 -35 93 -6 4 -5 11 3
19 8 9 14 10 19 3 8 -13 3 107 -7 148 -8 34 -15 54 -41 110 -34 73 -34 74 -18
68 7 -3 14 -9 14 -14 0 -5 5 -9 11 -9 8 0 8 4 0 14 -6 7 -9 20 -6 28 3 8 -8
28 -25 46 -33 35 -37 54 -15 72 21 17 19 46 -5 70 -11 11 -20 27 -20 35 0 8
-11 49 -25 91 -14 42 -25 85 -25 94 0 10 -4 20 -9 22 -5 2 -11 24 -13 50 -2
25 -9 52 -15 60 -6 7 -14 32 -18 54 -4 25 -16 51 -31 65 -13 12 -24 31 -24 41
0 13 -7 18 -25 18 -17 0 -25 6 -25 18 -1 23 -37 65 -52 60 -7 -3 -19 8 -25 24
-8 19 -19 28 -30 27 -10 -2 -37 9 -61 24 -27 18 -50 26 -62 22 -12 -4 -31 3
-50 17 -25 18 -34 20 -49 11 -19 -12 -61 -7 -61 7 0 5 -15 12 -32 15 -18 4
-44 13 -58 21 -41 22 -118 54 -130 54 -6 0 -8 -4 -5 -10 11 -18 -23 -11 -102
21 -87 35 -133 45 -133 30 0 -6 -12 -6 -32 0 -47 13 -78 31 -78 44 0 7 -35 27
-77 46 -60 25 -94 34 -146 35 -37 1 -69 -2 -72 -6 -6 -10 24 -22 37 -14 6 4 8
-2 6 -12 -5 -26 -63 -44 -115 -37 l-43 5 0 -1434 0 -1435 117 -7 c209 -13 766
-7 908 9 219 25 288 36 315 49 61 31 546 49 705 26 227 -32 390 -47 645 -60
255 -13 1379 -12 1555 1 72 5 184 12 250 14 66 3 156 10 200 15 44 5 161 14
260 20 99 6 246 15 327 21 80 5 150 9 155 8 4 -1 10 0 13 1 3 1 33 4 68 6 34
3 83 9 110 15 86 20 204 25 287 13 44 -6 83 -9 87 -7 7 4 92 -14 213 -44 148
-38 236 -51 405 -64 80 -6 159 -12 175 -14 85 -12 466 -44 578 -48 l127 -5 0
1454 0 1454 -22 0 c-12 0 -60 -7 -106 -16 -52 -10 -87 -12 -91 -6 -12 19 -48
22 -105 7 -32 -9 -74 -14 -92 -13 -23 1 -38 -4 -47 -16 -8 -11 -17 -15 -20 -9
-4 6 -30 6 -69 2 -35 -5 -87 -9 -117 -10 -30 -1 -68 -9 -85 -18 -33 -16 -57
-22 -95 -21 -13 0 -31 -9 -39 -21 -12 -17 -23 -20 -66 -17 -50 3 -51 3 -62
-32 -8 -22 -20 -37 -37 -43 -14 -4 -29 -17 -32 -28 -5 -14 -12 -18 -25 -14
-13 4 -20 -2 -29 -25 -6 -18 -15 -29 -21 -25 -14 9 -50 -13 -50 -31 0 -12 -6
-15 -25 -10 -14 4 -25 2 -25 -3 0 -5 -9 -13 -20 -16 -14 -4 -20 -15 -20 -36 0
-22 -6 -32 -26 -39 -19 -8 -24 -15 -19 -29 5 -15 -2 -22 -32 -31 -36 -12 -63
-34 -63 -52 0 -4 15 -14 33 -21 l32 -14 -39 -7 c-21 -4 -41 -5 -44 -1 -11 11
-42 100 -42 121 0 11 5 25 11 31 9 9 4 19 -18 40 -106 99 -133 123 -142 123
-5 0 -25 21 -42 48 -18 26 -35 49 -39 52 -3 3 -16 25 -29 50 -12 25 -36 59
-51 75 -36 38 -67 124 -50 135 10 6 10 15 0 41 -7 19 -17 54 -22 79 -5 25 -11
57 -15 73 -6 33 3 34 34 5 29 -27 30 -10 3 51 -11 24 -20 51 -20 61 0 10 -7
31 -15 46 -23 45 -20 66 10 58 34 -8 32 1 -11 53 -33 40 -36 49 -31 88 6 39 4
45 -23 67 -16 12 -30 31 -30 41 0 10 -13 26 -30 35 -16 9 -35 27 -41 39 -7 13
-16 23 -20 23 -5 0 -23 12 -41 28 -18 15 -53 38 -78 52 -25 13 -59 34 -77 46
-18 12 -54 25 -80 29 -26 4 -64 13 -84 21 -32 13 -180 24 -212 16z m53 -1371
c0 -5 -9 -11 -20 -14 -20 -5 -26 3 -13 16 9 10 33 8 33 -2z m-50 -10 c0 -13
-26 -32 -33 -24 -14 13 -6 33 13 33 11 0 20 -4 20 -9z m-70 -32 c0 -5 -12 -9
-27 -9 -26 0 -26 1 -8 14 20 14 35 12 35 -5z m-872 -2040 c71 -31 166 -48 422
-73 25 -3 61 -10 80 -16 19 -5 57 -10 85 -10 27 0 57 -5 65 -10 8 -5 12 -10 8
-11 -5 -1 -12 -3 -18 -4 -5 -1 -50 -3 -100 -4 -52 0 -90 -5 -90 -11 0 -5 8
-10 18 -11 10 0 5 -4 -11 -9 -15 -5 -42 -4 -60 1 -18 5 -57 10 -87 13 -30 2
-62 5 -70 7 -11 3 -15 -4 -14 -24 0 -25 -3 -27 -35 -26 -20 1 -58 -2 -84 -6
-44 -7 -49 -6 -54 14 -6 22 -18 27 -27 12 -3 -5 -15 -7 -26 -4 -15 4 -20 0
-20 -16 0 -21 -1 -21 -32 -4 l-33 17 25 7 c23 6 22 7 -8 8 -19 1 -31 -3 -27
-8 5 -9 -24 -31 -39 -31 -12 0 -6 28 7 33 6 3 -2 6 -20 6 -17 1 -33 7 -35 13
-4 10 -16 7 -49 -9 -58 -28 -82 -37 -94 -34 -5 1 -47 -3 -93 -9 -60 -8 -88 -8
-95 -1 -14 14 -88 14 -214 -1 -82 -9 -108 -9 -130 1 l-28 13 25 10 c13 5 65
13 115 18 49 5 137 21 195 34 58 14 117 26 131 26 15 0 40 7 55 15 16 8 37 15
46 15 19 0 70 21 78 32 3 4 33 21 65 38 67 34 92 34 173 -1z m-1908 -69 c0 -5
-4 -10 -10 -10 -5 0 -10 5 -10 10 0 6 5 10 10 10 6 0 10 -4 10 -10z"/>
<path d="M3905 479 c-9 -14 0 -22 18 -17 13 2 13 5 2 15 -10 9 -16 9 -20 2z"/>
<path d="M7485 4030 c3 -5 8 -10 11 -10 2 0 4 5 4 10 0 6 -5 10 -11 10 -5 0
-7 -4 -4 -10z"/>
<path d="M7423 3986 c-11 -13 -30 -26 -43 -28 -23 -3 -23 -4 11 -29 19 -14 51
-29 72 -33 37 -7 37 -7 37 28 0 19 -5 38 -11 42 -8 4 -8 9 0 17 18 18 12 27
-18 27 -19 0 -36 -8 -48 -24z"/>
<path d="M7448 3873 c-47 -5 -48 -20 -3 -39 48 -20 55 -18 55 16 0 17 -3 29
-7 28 -5 -1 -25 -3 -45 -5z"/>
<path d="M225 3850 c-8 -14 3 -30 21 -30 10 0 14 -12 14 -39 0 -26 5 -41 16
-45 8 -3 13 -10 10 -15 -3 -5 1 -14 9 -21 20 -16 19 -29 -2 -37 -22 -8 -52
-43 -53 -60 0 -6 -25 -17 -55 -23 -50 -10 -76 -30 -40 -30 23 0 18 -16 -10
-28 -36 -16 -33 -42 5 -42 29 0 41 -15 19 -22 -17 -6 -14 -61 4 -72 12 -8 7
-17 -30 -53 -25 -24 -49 -43 -54 -43 -19 0 -19 -23 0 -36 12 -8 21 -24 21 -34
0 -13 10 -22 32 -28 18 -4 33 -15 33 -23 0 -18 33 -23 76 -11 26 6 34 13 34
33 0 17 6 25 23 27 27 4 24 25 -4 30 -10 2 -24 10 -30 18 -6 7 -28 21 -48 29
-21 9 -36 20 -34 25 2 5 28 22 58 37 30 15 54 33 53 38 -1 6 -21 14 -45 19
-24 5 -35 11 -25 13 23 6 22 10 -10 39 -14 13 -24 26 -22 28 2 2 13 8 24 14
19 10 18 11 -8 23 l-28 13 37 18 c21 10 47 18 59 18 45 0 83 20 82 43 0 12 2
29 4 37 3 10 -3 15 -18 14 -13 0 -23 3 -23 8 0 14 50 21 104 14 29 -3 56 -3
60 1 9 10 -73 42 -109 42 l-30 1 30 28 c17 15 39 31 49 35 27 11 21 13 -69 31
-44 9 -90 18 -102 21 -12 3 -25 1 -28 -5z"/>
<path d="M7420 3786 c0 -5 -8 -15 -17 -22 -22 -15 -15 -23 50 -57 l47 -25 0
57 0 56 -40 0 c-22 0 -40 -4 -40 -9z"/>
<path d="M4031 2438 c-13 -28 -15 -61 -12 -165 1 -13 7 -23 14 -23 8 0 22 -9
31 -19 9 -10 25 -17 34 -15 21 5 57 -25 66 -54 12 -37 21 -25 19 25 -3 54 -30
163 -44 178 -7 6 -13 5 -19 -5 -8 -12 -10 -9 -10 12 0 35 -10 59 -21 52 -5 -3
-13 6 -19 20 -13 34 -22 33 -39 -6z"/>
</g>
</svg>
